<svg width="228" height="50" viewBox="0 0 228 50" fill="none" xmlns="http://www.w3.org/2000/svg">
<g filter="url(#filter0_d)">
<path d="M35.1129 8.40625L41.6871 26.9688L48.2262 8.40625H55.152V34H49.8609V27.0039L50.3883 14.9277L43.4801 34H39.859L32.9684 14.9453L33.4957 27.0039V34H28.2223V8.40625H35.1129ZM63.3574 34V8.40625H71.2324C73.4824 8.40625 75.4922 8.91602 77.2617 9.93555C79.043 10.9434 80.4316 12.3848 81.4277 14.2598C82.4238 16.123 82.9219 18.2441 82.9219 20.623V21.8008C82.9219 24.1797 82.4297 26.2949 81.4453 28.1465C80.4727 29.998 79.0957 31.4336 77.3145 32.4531C75.5332 33.4727 73.5234 33.9883 71.2852 34H63.3574ZM68.6309 12.6777V29.7637H71.1797C73.2422 29.7637 74.8184 29.0898 75.9082 27.7422C76.998 26.3945 77.5547 24.4668 77.5781 21.959V20.6055C77.5781 18.0039 77.0391 16.0352 75.9609 14.6992C74.8828 13.3516 73.3066 12.6777 71.2324 12.6777H68.6309ZM99.143 17.2305L103.942 8.40625H110.006L102.553 21.0977L110.2 34H104.065L99.143 25.0352L94.2211 34H88.0863L95.7328 21.0977L88.2797 8.40625H94.3441L99.143 17.2305Z" fill="#102A42"/>
<path d="M116.471 34V8.40625H125.436C128.542 8.40625 130.897 9.00391 132.503 10.1992C134.108 11.3828 134.911 13.123 134.911 15.4199C134.911 16.6738 134.589 17.7812 133.944 18.7422C133.3 19.6914 132.403 20.3887 131.255 20.834C132.567 21.1621 133.598 21.8242 134.348 22.8203C135.11 23.8164 135.491 25.0352 135.491 26.4766C135.491 28.9375 134.706 30.8008 133.136 32.0664C131.565 33.332 129.327 33.9766 126.421 34H116.471ZM121.745 22.8555V29.7637H126.263C127.505 29.7637 128.471 29.4707 129.163 28.8848C129.866 28.2871 130.218 27.4668 130.218 26.4238C130.218 24.0801 129.005 22.8906 126.579 22.8555H121.745ZM121.745 19.1289H125.647C128.307 19.082 129.638 18.0215 129.638 15.9473C129.638 14.7871 129.298 13.9551 128.618 13.4512C127.95 12.9355 126.889 12.6777 125.436 12.6777H121.745V19.1289ZM148.091 34H142.993V7H148.091V34ZM155.101 24.3145C155.101 22.4277 155.464 20.7461 156.191 19.2695C156.918 17.793 157.961 16.6504 159.32 15.8418C160.691 15.0332 162.279 14.6289 164.084 14.6289C166.65 14.6289 168.742 15.4141 170.359 16.9844C171.988 18.5547 172.896 20.6875 173.084 23.3828L173.119 24.6836C173.119 27.6016 172.304 29.9453 170.675 31.7148C169.046 33.4727 166.861 34.3516 164.119 34.3516C161.377 34.3516 159.185 33.4727 157.545 31.7148C155.916 29.957 155.101 27.5664 155.101 24.543V24.3145ZM160.181 24.6836C160.181 26.4883 160.521 27.8711 161.201 28.832C161.88 29.7812 162.853 30.2559 164.119 30.2559C165.349 30.2559 166.31 29.7871 167.002 28.8496C167.693 27.9004 168.039 26.3887 168.039 24.3145C168.039 22.5449 167.693 21.1738 167.002 20.2012C166.31 19.2285 165.337 18.7422 164.084 18.7422C162.841 18.7422 161.88 19.2285 161.201 20.2012C160.521 21.1621 160.181 22.6562 160.181 24.6836ZM179.109 24.3496C179.109 21.4316 179.801 19.082 181.184 17.3008C182.578 15.5195 184.453 14.6289 186.809 14.6289C188.895 14.6289 190.518 15.3438 191.678 16.7734L191.889 14.9805H196.494V33.3672C196.494 35.0312 196.113 36.4785 195.352 37.709C194.602 38.9395 193.541 39.877 192.17 40.5215C190.799 41.166 189.193 41.4883 187.354 41.4883C185.959 41.4883 184.6 41.207 183.275 40.6445C181.951 40.0938 180.949 39.3789 180.27 38.5L182.52 35.4062C183.785 36.8242 185.32 37.5332 187.125 37.5332C188.473 37.5332 189.521 37.1699 190.271 36.4434C191.021 35.7285 191.396 34.709 191.396 33.3848V32.3652C190.225 33.6895 188.684 34.3516 186.773 34.3516C184.488 34.3516 182.637 33.4609 181.219 31.6797C179.812 29.8867 179.109 27.5137 179.109 24.5605V24.3496ZM184.189 24.7188C184.189 26.4414 184.535 27.7949 185.227 28.7793C185.918 29.752 186.867 30.2383 188.074 30.2383C189.621 30.2383 190.729 29.6582 191.396 28.498V20.5C190.717 19.3398 189.621 18.7598 188.109 18.7598C186.891 18.7598 185.93 19.2578 185.227 20.2539C184.535 21.25 184.189 22.7383 184.189 24.7188Z" fill="#5223D1"/>
</g>
<defs>
<filter id="filter0_d" x="24.2223" y="7" width="176.272" height="42.4883" filterUnits="userSpaceOnUse" color-interpolation-filters="sRGB">
<feFlood flood-opacity="0" result="BackgroundImageFix"/>
<feColorMatrix in="SourceAlpha" type="matrix" values="0 0 0 0 0 0 0 0 0 0 0 0 0 0 0 0 0 0 127 0"/>
<feOffset dy="4"/>
<feGaussianBlur stdDeviation="2"/>
<feColorMatrix type="matrix" values="0 0 0 0 0 0 0 0 0 0 0 0 0 0 0 0 0 0 0.25 0"/>
<feBlend mode="normal" in2="BackgroundImageFix" result="effect1_dropShadow"/>
<feBlend mode="normal" in="SourceGraphic" in2="effect1_dropShadow" result="shape"/>
</filter>
</defs>
</svg>
